<svg width="44" height="44" viewBox="0 0 44 44" fill="none" xmlns="http://www.w3.org/2000/svg">
<g clip-path="url(#clip0_3_185)">
<path fill-rule="evenodd" clip-rule="evenodd" d="M21.998 0.541035C9.84966 0.541035 0 10.3907 0 22.5417C0 32.2617 6.30308 40.5069 15.0453 43.4174C16.146 43.6186 16.5471 42.9393 16.5471 42.3558C16.5471 41.8345 16.5282 40.4502 16.5174 38.6148C10.398 39.9437 9.10685 35.6651 9.10685 35.6651C8.10608 33.1247 6.66368 32.4481 6.66368 32.4481C4.6662 31.0827 6.81494 31.1097 6.81494 31.1097C9.02311 31.2663 10.1846 33.3773 10.1846 33.3773C12.147 36.7388 15.3343 35.7678 16.5876 35.2059C16.7875 33.7838 17.3547 32.8141 17.9841 32.2644C13.0991 31.7093 7.96292 29.8212 7.96292 21.391C7.96292 18.9897 8.82053 17.026 10.2278 15.4877C10.0009 14.9313 9.24596 12.6948 10.4426 9.66544C10.4426 9.66544 12.2901 9.07389 16.4931 11.9209C18.2475 11.4333 20.1301 11.1889 22.0007 11.1808C23.8685 11.1889 25.7512 11.4333 27.5083 11.9209C31.7085 9.07389 33.552 9.66544 33.552 9.66544C34.7527 12.6948 33.9977 14.9313 33.7708 15.4877C35.1808 17.026 36.033 18.9897 36.033 21.391C36.033 29.8429 30.8887 31.7026 25.9875 32.2469C26.7776 32.9262 27.4813 34.2687 27.4813 36.3215C27.4813 39.2617 27.4542 41.6346 27.4542 42.3558C27.4542 42.9447 27.85 43.6294 28.9669 43.4147C37.7023 40.4988 44 32.259 44 22.5417C44 10.3907 34.149 0.541035 21.998 0.541035Z" fill="#1B1817"/>
</g>
<defs>
<clipPath id="clip0_3_185">
<rect width="44" height="44" fill="white"/>
</clipPath>
</defs>
</svg>
