<svg width="44" height="44" viewBox="0 0 44 44" fill="none" xmlns="http://www.w3.org/2000/svg">
<g clip-path="url(#clip0_3_186)">
<path fill-rule="evenodd" clip-rule="evenodd" d="M21.998 0.546033C9.84966 0.546033 0 10.3957 0 22.5467C0 32.2667 6.30308 40.5119 15.0453 43.4224C16.146 43.6236 16.5471 42.9443 16.5471 42.3608C16.5471 41.8395 16.5282 40.4552 16.5174 38.6198C10.398 39.9487 9.10685 35.6701 9.10685 35.6701C8.10608 33.1284 6.66368 32.4517 6.66368 32.4517C4.6662 31.0877 6.81494 31.1147 6.81494 31.1147C9.02311 31.27 10.1846 33.3823 10.1846 33.3823C12.147 36.7438 15.3343 35.7728 16.5876 35.2096C16.7875 33.7888 17.3547 32.8191 17.9841 32.2694C13.0991 31.7143 7.96292 29.8262 7.96292 21.396C7.96292 18.9947 8.82053 17.031 10.2278 15.4927C10.0009 14.9363 9.24596 12.6998 10.4426 9.67044C10.4426 9.67044 12.2901 9.07889 16.4931 11.9259C18.2475 11.437 20.1301 11.1939 22.0007 11.1858C23.8685 11.1939 25.7512 11.437 27.5083 11.9259C31.7085 9.07889 33.552 9.67044 33.552 9.67044C34.7527 12.6998 33.9977 14.9363 33.7708 15.4927C35.1808 17.031 36.033 18.9947 36.033 21.396C36.033 29.8479 30.8887 31.7076 25.9875 32.2519C26.7776 32.9312 27.4813 34.2736 27.4813 36.3265C27.4813 39.2667 27.4542 41.6396 27.4542 42.3608C27.4542 42.9497 27.85 43.6344 28.9669 43.4197C37.7023 40.5038 44 32.264 44 22.5467C44 10.3957 34.149 0.546033 21.998 0.546033Z" fill="white"/>
</g>
<defs>
<clipPath id="clip0_3_186">
<rect width="44" height="44" fill="white"/>
</clipPath>
</defs>
</svg>
